<?xml version="1.0" standalone="no"?>
<!DOCTYPE svg PUBLIC "-//W3C//DTD SVG 20010904//EN"
 "http://www.w3.org/TR/2001/REC-SVG-20010904/DTD/svg10.dtd">
<svg version="1.0" xmlns="http://www.w3.org/2000/svg"
 width="350.000000pt" height="75.000000pt" viewBox="0 0 350.000000 75.000000"
 preserveAspectRatio="xMidYMid meet">

<g transform="translate(0.000000,75.000000) scale(0.100000,-0.100000)"
fill="#000000" stroke="none">
<path d="M328 736 c-27 -7 -48 -11 -48 -9 0 4 -25 -15 -77 -58 -7 -5 -13 -7
-13 -3 0 4 -14 -11 -31 -32 -17 -21 -35 -42 -41 -45 -5 -3 -8 -19 -7 -35 2
-16 0 -34 -4 -41 -4 -6 -3 -14 3 -18 5 -3 10 -11 10 -16 0 -6 -12 -1 -26 10
-15 12 -35 21 -45 21 -46 0 -24 -105 27 -129 15 -6 23 -7 19 -1 -3 5 -1 10 4
10 6 0 11 -5 11 -11 0 -8 6 -7 17 2 15 13 15 12 6 -5 -9 -16 -6 -26 14 -53 26
-33 60 -46 50 -18 -4 8 -1 17 4 21 7 4 10 -3 9 -17 -4 -43 1 -55 11 -30 5 13
7 33 4 45 -4 14 -3 17 3 8 5 -7 16 -10 25 -6 9 3 17 2 17 -4 0 -6 -5 -12 -11
-14 -22 -7 5 -38 42 -48 71 -19 161 10 181 58 9 22 12 24 15 9 7 -27 -24 -67
-62 -83 -42 -17 -136 -18 -157 -1 -8 6 -20 21 -26 32 -9 16 -11 17 -12 3 0 -9
-3 -23 -6 -32 -4 -12 0 -16 15 -16 24 0 27 -15 7 -35 -15 -16 -27 -10 -20 10
3 8 -4 19 -16 25 -13 7 -20 8 -16 2 3 -5 -5 -13 -18 -16 -13 -3 -31 -9 -40
-12 -11 -4 -16 -1 -16 11 0 24 -24 12 -28 -14 -3 -16 2 -24 17 -28 12 -3 21
-12 21 -20 0 -9 -5 -11 -12 -7 -16 10 11 -26 32 -43 19 -16 47 -16 56 -1 5 7
2 9 -8 5 -22 -8 -58 20 -58 45 l0 22 20 -22 c25 -26 29 -27 58 -6 32 22 51 6
21 -18 l-24 -19 27 12 c32 14 43 35 22 43 -14 6 -11 26 4 26 13 0 34 -59 26
-72 -6 -9 -3 -9 9 1 9 7 17 23 17 36 0 27 29 55 58 55 11 0 24 5 27 10 10 15
35 12 35 -5 0 -8 5 -15 10 -15 6 0 8 10 5 23 -4 17 3 28 35 50 22 16 45 25 50
22 6 -4 9 -3 8 2 -3 10 19 73 26 73 3 0 3 -7 0 -15 -5 -12 0 -12 27 -5 18 5
36 13 40 17 12 14 21 53 11 53 -5 0 -12 10 -15 23 -6 22 -6 22 10 2 14 -18 15
-18 9 -2 -3 10 -6 21 -6 23 0 9 -37 3 -49 -8 -10 -11 -12 -8 -11 12 1 14 2 49
1 78 -1 47 -3 52 -24 52 -15 0 -29 11 -41 31 -10 16 -29 34 -43 40 -13 5 -21
14 -18 19 4 6 -7 13 -24 16 -17 4 -31 10 -31 14 0 4 -8 7 -17 6 -10 0 -17 5
-15 12 2 14 1 14 -60 -2z m140 -101 c74 -17 -44 -30 -202 -23 -42 2 -53 5 -45
15 6 6 20 13 32 15 30 4 187 -1 215 -7z m-40 -100 c-11 -35 -28 -39 -28 -6 0
17 18 41 31 41 4 0 2 -16 -3 -35z m-260 -17 c-13 -58 -18 -60 -18 -5 0 34 4
47 14 47 11 0 12 -8 4 -42z m262 -76 c0 -5 25 -20 55 -33 55 -23 76 -46 53
-60 -8 -5 -14 -3 -16 6 -5 21 -21 18 -67 -10 -22 -14 -48 -25 -57 -25 -9 0
-19 -4 -23 -10 -3 -5 16 -3 42 5 26 8 49 13 51 11 2 -2 -10 -13 -26 -25 -21
-15 -39 -19 -68 -16 -33 4 -35 3 -14 -5 20 -8 16 -9 -23 -6 -26 2 -51 7 -55
10 -10 11 20 26 53 27 29 1 28 1 -8 10 -20 5 -55 18 -76 28 -33 18 -41 18 -58
6 -21 -15 -33 -11 -33 12 0 14 9 18 93 48 26 9 47 23 47 31 0 24 39 56 60 49
16 -5 19 -3 13 12 -4 10 7 2 25 -18 18 -20 32 -41 32 -47z m-350 -24 c0 -26
-2 -29 -15 -18 -8 7 -15 26 -15 42 0 26 2 29 15 18 8 -7 15 -26 15 -42z m26
27 c-3 -8 2 -19 12 -24 15 -9 14 -10 -5 -11 -22 0 -32 27 -16 43 11 12 15 8 9
-8z m534 -39 c0 -13 -8 -30 -17 -37 -15 -13 -16 -11 -10 11 4 14 7 31 7 38 0
6 5 12 10 12 6 0 10 -11 10 -24z m-30 -4 c0 -13 -12 -22 -22 -16 -10 6 -1 24
13 24 5 0 9 -4 9 -8z m-390 -234 c0 -19 -16 -5 -17 14 -2 18 0 20 7 8 5 -8 10
-18 10 -22z"/>
<path d="M327 461 c-3 -13 1 -21 14 -24 15 -4 19 0 19 19 0 29 -25 33 -33 5z"/>
<path d="M380 457 c0 -27 13 -36 26 -16 3 6 -1 18 -10 27 -15 15 -16 14 -16
-11z"/>
<path d="M367 370 c3 -11 7 -20 9 -20 2 0 4 9 4 20 0 11 -4 20 -9 20 -5 0 -7
-9 -4 -20z"/>
<path d="M1508 532 c-27 -3 -40 -22 -15 -22 8 0 7 -4 -3 -10 -13 -9 -13 -11 0
-20 13 -8 12 -11 -5 -24 -18 -14 -18 -15 -2 -16 21 0 23 -16 2 -24 -22 -8 -22
-176 0 -176 8 0 18 14 23 31 l8 32 27 -37 c31 -41 61 -46 78 -15 9 17 8 25 -4
36 -8 9 -20 12 -26 9 -12 -8 -15 -27 -3 -23 4 1 8 -3 10 -8 7 -22 -26 -14 -43
11 -17 27 -17 27 14 51 20 16 31 33 31 50 0 24 -2 25 -38 19 l-39 -6 9 57 c12
77 9 89 -24 85z m50 -173 c-2 -12 -13 -29 -26 -37 -23 -15 -23 -15 -16 14 9
39 13 44 30 44 10 0 14 -8 12 -21z"/>
<path d="M3028 532 c-27 -3 -40 -22 -15 -22 8 0 7 -4 -3 -10 -13 -9 -13 -11 0
-20 13 -8 12 -11 -5 -24 -18 -14 -18 -15 -2 -16 21 0 23 -16 2 -24 -22 -8 -22
-176 0 -176 8 0 18 14 23 31 l8 32 27 -37 c31 -41 61 -46 78 -15 9 17 8 25 -4
36 -8 9 -20 12 -26 9 -12 -8 -15 -27 -3 -23 4 1 8 -3 10 -8 7 -22 -26 -14 -43
11 -17 27 -17 27 14 51 20 16 31 33 31 50 0 24 -2 25 -38 19 l-39 -6 9 57 c12
77 9 89 -24 85z m50 -173 c-2 -12 -13 -29 -26 -37 -23 -15 -23 -15 -16 14 9
39 13 44 30 44 10 0 14 -8 12 -21z"/>
<path d="M758 398 c2 -73 7 -135 9 -138 3 -3 32 -5 65 -5 53 0 62 3 84 28 33
39 31 78 -7 121 -17 20 -28 40 -24 46 21 33 -39 80 -103 80 l-29 0 5 -132z
m80 65 c2 -27 -2 -44 -13 -53 -22 -18 -24 -13 -18 48 7 62 26 66 31 5z m40
-82 c7 -43 -8 -71 -43 -88 -19 -9 -37 -14 -41 -11 -3 4 -2 27 1 52 6 36 13 49
34 60 34 18 45 15 49 -13z m37 -40 c3 -5 1 -12 -5 -16 -5 -3 -10 1 -10 9 0 18
6 21 15 7z m-13 -46 c0 -5 -5 -11 -11 -13 -6 -2 -11 4 -11 13 0 9 5 15 11 13
6 -2 11 -8 11 -13z m-32 -21 c0 -8 -5 -12 -10 -9 -6 4 -8 11 -5 16 9 14 15 11
15 -7z"/>
<path d="M826 349 c-25 -42 -16 -45 12 -3 12 19 19 34 14 34 -4 0 -16 -14 -26
-31z"/>
<path d="M980 520 c0 -5 5 -10 10 -10 14 0 12 -27 -2 -33 -10 -4 -10 -6 0 -6
6 -1 12 -7 12 -15 0 -8 -6 -17 -12 -20 -10 -5 -10 -7 0 -12 6 -3 12 -12 12
-20 0 -9 -4 -12 -10 -9 -5 3 -10 1 -10 -4 0 -6 5 -11 10 -11 14 0 12 -27 -2
-33 -10 -4 -10 -6 0 -6 6 -1 12 -7 12 -15 0 -8 -6 -17 -12 -19 -10 -4 -10 -6
0 -6 6 -1 12 -8 12 -16 0 -8 -6 -15 -12 -16 -7 0 -3 -5 10 -11 12 -6 24 -9 27
-7 3 4 35 242 35 268 0 6 -18 11 -40 11 -22 0 -40 -4 -40 -10z"/>
<path d="M1771 523 c-7 -3 -40 -60 -72 -127 l-59 -121 23 -17 c32 -25 41 -22
56 17 12 35 13 35 71 35 57 0 59 -1 65 -30 7 -30 19 -38 29 -21 9 13 -76 271
-88 270 -6 0 -17 -3 -25 -6z m37 -85 c12 -48 10 -52 -32 -62 -22 -6 -27 -4
-23 7 3 8 11 33 18 56 7 23 15 41 19 41 4 0 12 -19 18 -42z m25 -82 c6 -15
-20 -26 -65 -26 -40 0 -34 16 10 28 51 14 49 14 55 -2z m-131 -43 c-9 -28 -18
-41 -20 -31 -3 15 23 78 33 78 2 0 -4 -21 -13 -47z"/>
<path d="M2356 510 c-3 -8 -12 -53 -22 -100 -20 -103 -29 -128 -56 -158 -19
-19 -19 -22 -5 -22 20 0 52 48 69 102 l11 37 35 -44 35 -45 39 65 c22 36 41
65 44 65 3 0 2 -39 -2 -86 l-7 -85 39 7 c21 3 40 8 42 9 1 1 -3 60 -10 131
-12 117 -15 129 -33 132 -16 2 -26 -10 -49 -63 -15 -36 -32 -68 -37 -70 -4 -3
-26 27 -48 67 -24 44 -42 67 -45 58z m42 -119 c12 -21 22 -45 22 -52 -1 -20
-59 53 -60 74 0 28 15 20 38 -22z m147 -58 c-3 -21 -11 -42 -16 -48 -10 -9 -7
13 8 68 9 32 15 17 8 -20z"/>
<path d="M2133 443 c-16 -3 -23 -11 -23 -29 0 -15 -6 -24 -15 -24 -23 0 -18
-17 8 -25 19 -6 19 -8 5 -12 -22 -6 -24 -23 -3 -23 11 0 15 -12 15 -45 0 -56
18 -59 26 -4 5 29 13 43 25 46 23 6 25 23 4 23 -21 0 -19 28 3 33 16 4 16 5 0
6 -14 1 -16 7 -11 31 3 17 2 29 -3 29 -5 -1 -19 -4 -31 -6z m17 -28 c0 -8 -4
-15 -10 -15 -5 0 -10 7 -10 15 0 8 5 15 10 15 6 0 10 -7 10 -15z m-6 -46 c-3
-5 -10 -7 -15 -3 -5 3 -7 10 -3 15 3 5 10 7 15 3 5 -3 7 -10 3 -15z"/>
<path d="M3413 443 c-16 -3 -23 -11 -23 -29 0 -15 -6 -24 -15 -24 -23 0 -18
-17 8 -25 19 -6 19 -8 5 -12 -22 -6 -24 -23 -3 -23 11 0 15 -12 15 -45 0 -56
18 -59 26 -4 5 29 13 43 25 46 23 6 25 23 4 23 -21 0 -19 28 3 33 16 4 16 5 0
6 -14 1 -16 7 -11 31 3 17 2 29 -3 29 -5 -1 -19 -4 -31 -6z m17 -28 c0 -8 -4
-15 -10 -15 -5 0 -10 7 -10 15 0 8 5 15 10 15 6 0 10 -7 10 -15z m-6 -46 c-3
-5 -10 -7 -15 -3 -5 3 -7 10 -3 15 3 5 10 7 15 3 5 -3 7 -10 3 -15z"/>
<path d="M1548 433 c7 -3 16 -2 19 1 4 3 -2 6 -13 5 -11 0 -14 -3 -6 -6z"/>
<path d="M3068 433 c7 -3 16 -2 19 1 4 3 -2 6 -13 5 -11 0 -14 -3 -6 -6z"/>
<path d="M2009 399 c-7 -4 -17 -5 -21 -3 -4 3 -8 -2 -8 -10 0 -9 -4 -16 -10
-16 -5 0 -10 8 -10 17 0 14 -3 14 -12 5 -15 -15 -38 -142 -26 -142 4 0 8 7 8
15 0 8 5 15 11 15 6 0 9 -9 6 -20 -3 -14 0 -20 10 -20 13 0 15 9 11 44 -4 35
-1 49 14 65 21 24 48 28 48 8 0 -8 6 -14 14 -14 8 0 12 6 9 15 -3 8 -1 17 5
21 6 4 1 11 -13 17 -13 6 -29 8 -36 3z m-55 -100 c-3 -5 -10 -7 -15 -3 -5 3
-7 10 -3 15 3 5 10 7 15 3 5 -3 7 -10 3 -15z"/>
<path d="M2648 394 c-16 -8 -28 -19 -28 -25 0 -6 7 -6 19 1 25 13 58 13 66 0
3 -5 -10 -16 -29 -24 -65 -27 -73 -90 -12 -101 18 -4 52 -2 74 5 39 10 42 13
42 46 0 63 -40 115 -87 114 -10 -1 -30 -8 -45 -16z m106 -65 c-3 -5 -10 -7
-15 -3 -5 3 -7 10 -3 15 3 5 10 7 15 3 5 -3 7 -10 3 -15z m-34 -34 c0 -38 -3
-45 -20 -45 -25 0 -41 67 -19 81 29 18 39 10 39 -36z m40 -10 c0 -8 -4 -15 -9
-15 -13 0 -22 16 -14 24 11 11 23 6 23 -9z"/>
<path d="M2899 399 c-7 -4 -17 -5 -21 -3 -4 3 -8 -2 -8 -10 0 -9 -4 -16 -10
-16 -5 0 -10 8 -10 17 0 14 -3 14 -12 5 -15 -15 -38 -142 -26 -142 4 0 8 7 8
15 0 8 5 15 11 15 6 0 9 -9 6 -20 -3 -14 0 -20 10 -20 13 0 15 9 11 44 -4 35
-1 49 14 65 21 24 48 28 48 8 0 -8 6 -14 14 -14 8 0 12 6 9 15 -3 8 -1 17 5
21 6 4 1 11 -13 17 -13 6 -29 8 -36 3z m-55 -100 c-3 -5 -10 -7 -15 -3 -5 3
-7 10 -3 15 3 5 10 7 15 3 5 -3 7 -10 3 -15z"/>
<path d="M3250 401 c0 -8 -7 -11 -20 -8 -13 3 -20 0 -20 -9 0 -8 -7 -14 -15
-14 -8 0 -12 -6 -9 -14 3 -7 -2 -21 -11 -30 -9 -9 -12 -16 -7 -16 16 0 24 -33
10 -42 -9 -5 -6 -8 10 -8 15 0 26 -7 29 -18 3 -14 11 -18 29 -14 14 2 24 0 24
-8 0 -7 5 -6 15 4 9 8 22 13 30 10 10 -4 15 0 15 14 0 18 -3 19 -29 9 -23 -8
-33 -8 -46 3 -25 21 -15 54 18 58 32 4 55 37 32 46 -8 3 -12 12 -9 21 5 11 2
14 -11 9 -10 -4 -21 -1 -26 7 -7 12 -9 12 -9 0z m20 -50 c0 -9 -24 -21 -42
-21 -6 0 -6 6 2 15 14 16 40 20 40 6z"/>
<path d="M1116 375 c-4 -14 -14 -25 -24 -26 -10 0 -12 -3 -4 -6 15 -6 16 -39
0 -49 -7 -5 -4 -10 11 -16 17 -6 22 -14 18 -28 -3 -11 -1 -20 4 -20 5 0 9 5 9
10 0 13 52 1 62 -14 5 -8 8 -7 8 2 0 15 36 52 44 44 4 -3 3 9 0 26 -4 21 -3
32 5 32 6 0 11 5 11 11 0 5 -5 7 -10 4 -6 -4 -16 8 -24 26 -7 17 -16 28 -19
23 -6 -10 -58 -11 -74 -1 -6 4 -14 -4 -17 -18z m73 -19 c17 -20 10 -77 -11
-89 -24 -16 -48 8 -48 47 0 49 34 73 59 42z"/>
<path d="M1324 376 c-77 -65 11 -178 94 -120 25 18 29 31 7 31 -8 0 -15 -5
-15 -10 0 -5 -7 -7 -15 -3 -8 3 -15 0 -15 -7 0 -7 -7 -3 -16 8 -8 11 -17 19
-19 18 -14 -8 -18 -1 -5 7 10 6 11 10 3 10 -7 0 -13 7 -13 15 0 8 4 15 10 15
5 0 6 8 3 17 -5 12 -2 15 10 10 9 -3 17 -2 17 3 0 6 7 10 16 10 8 0 13 -4 10
-8 -2 -4 -1 -14 3 -20 6 -10 10 -10 20 1 9 12 8 18 -4 31 -23 23 -59 20 -91
-8z"/>
<path d="M580 311 c0 -5 5 -13 10 -16 6 -3 10 -2 10 4 0 5 -4 13 -10 16 -5 3
-10 2 -10 -4z"/>
<path d="M578 263 c7 -3 16 -2 19 1 4 3 -2 6 -13 5 -11 0 -14 -3 -6 -6z"/>
<path d="M135 240 c3 -5 8 -10 11 -10 2 0 4 5 4 10 0 6 -5 10 -11 10 -5 0 -7
-4 -4 -10z"/>
<path d="M560 150 c-9 -6 -10 -10 -3 -10 6 0 15 5 18 10 8 12 4 12 -15 0z"/>
<path d="M450 120 c27 -21 40 -25 40 -12 0 15 -24 32 -44 32 -20 0 -19 -2 4
-20z"/>
<path d="M337 104 c-4 -4 -4 -10 -1 -15 6 -10 34 0 34 12 0 10 -24 12 -33 3z"/>
<path d="M332 45 c2 -14 10 -19 26 -17 13 2 29 -1 36 -7 15 -13 46 -5 46 11 0
6 -6 6 -14 -1 -10 -8 -16 -9 -21 -1 -3 5 -16 10 -29 10 -12 0 -28 6 -35 13
-10 10 -12 8 -9 -8z"/>
<path d="M499 43 c18 -8 40 -12 49 -8 21 8 13 12 -38 17 l-45 6 34 -15z"/>
<path d="M298 13 c7 -3 16 -2 19 1 4 3 -2 6 -13 5 -11 0 -14 -3 -6 -6z"/>
</g>
</svg>
